# xmcd
#
# Track frame offsets: 
#        150
#        9370
#        18728
#        28434
#        40701
#        55338
#        68668
#        80818
#        93947
#        106843
#        118056
#        130888
#        144383
#        155071
#        165909
#        175770
#        185421
#        196883
#
# Disc length: 3011 seconds
#
# Revision: 0
# Processed by: cddbd v1.5.2PL0 Copyright (c) Steve Scherf et al.
# Submitted via: ExactAudioCopy v0.99pb4
#
DISCID=ed0bc112
DTITLE=Chris Sprague - Diesel Made For Two 
DYEAR=2008
DGENRE=Country
TTITLE0=Diesel Made for Two
TTITLE1=This Old Truck
TTITLE2=Runaway Truck
TTITLE3=Roll on Big Mama
TTITLE4=Let's Get Drunk and Truck
TTITLE5=East Bound and Down
TTITLE6=Pray for Your Daddy (He's a Trucker)
TTITLE7=Highway Bound
TTITLE8=That's a Big 10-4
TTITLE9=Big Mack
TTITLE10=Diesel on My Trail
TTITLE11=Worn out Wagon
TTITLE12=What's Your 20?
TTITLE13=Trucker Brown
TTITLE14=Cutest Truck Driver
TTITLE15=Speeding Truck
TTITLE16=Overloaded Diesel
TTITLE17=Sugarballs Blues
EXTD=
EXTT0=
EXTT1=
EXTT2=
EXTT3=
EXTT4=
EXTT5=
EXTT6=
EXTT7=
EXTT8=
EXTT9=
EXTT10=
EXTT11=
EXTT12=
EXTT13=
EXTT14=
EXTT15=
EXTT16=
EXTT17=
PLAYORDER=
